<svg id="Layer_1" data-name="Layer 1" xmlns="http://www.w3.org/2000/svg" viewBox="0 0 104.62 16.27"><defs><style>.cls-1{fill:#115a75;stroke:#3cb7ea;stroke-width:1.12px;}.cls-1,.cls-3{stroke-miterlimit:10;}.cls-2{fill:#fff;}.cls-3{fill:none;stroke:#fff;stroke-width:0.25px;}.cls-4{fill:#515151;}</style></defs><title>cam</title><rect class="cls-1" x="0.56" y="0.56" width="37.66" height="15.15"/><path class="cls-2" d="M7.39,4.09a2.17,2.17,0,0,0-2,1.12,5.77,5.77,0,0,0-.68,3,5.62,5.62,0,0,0,.66,3,2.24,2.24,0,0,0,2.05,1.06,4.82,4.82,0,0,0,1.31-.18,13.65,13.65,0,0,0,1.36-.46v2.09a7,7,0,0,1-2.94.6,4.84,4.84,0,0,1-2.75-.74,4.54,4.54,0,0,1-1.66-2.12,8.92,8.92,0,0,1-.55-3.25A7.93,7.93,0,0,1,2.81,5,4.81,4.81,0,0,1,4.54,2.82,4.79,4.79,0,0,1,7.34,2a7,7,0,0,1,3.19.8l-.77,2a7.65,7.65,0,0,0-1.17-.53A3.6,3.6,0,0,0,7.39,4.09Z"/><path class="cls-2" d="M19,14.12l-.77-2.85H14.46l-.79,2.85H11.05l3.72-12h3l3.76,12ZM17.66,9.2l-.78-2.91-.29-1.15c-.12-.45-.21-.83-.28-1.15,0,.21-.09.46-.16.75s-.14.57-.22.85l-.17.68L15,9.2Z"/><path class="cls-2" d="M28.9,14.12,26.23,5h-.07c0,.28,0,.62.05,1s.05.81.06,1.23,0,.8,0,1.14v5.76H24.08V2.2h3.34L30,11h.05L32.76,2.2H36.1V14.12H33.8V8.29c0-.32,0-.69,0-1.1s0-.81,0-1.2,0-.72,0-1h-.06L31,14.12Z"/><line class="cls-3" x1="22.78" y1="2.12" x2="22.78" y2="14.12"/><path class="cls-4" d="M45.89,9.52v.22c0,.65-.11,1.57-1.32,1.57s-1.28-.66-1.28-1.54V6.89c0-.88.4-1.47,1.3-1.47,1.07,0,1.28.71,1.28,1.51v.25H45V6.82c0-.38-.09-.59-.39-.59s-.4.2-.4.6v3c0,.37.07.66.41.66s.4-.25.4-.67V9.52Z"/><path class="cls-4" d="M48.89,9.69l-.2,1.53h-.9l.92-5.71H50l1,5.71H50l-.22-1.53Zm.77-.81c-.13-1-.25-1.89-.32-2.54h0c0,.48-.2,1.7-.31,2.54Z"/><path class="cls-4" d="M52.84,11.48l1.33-6h.66l-1.32,6Z"/><path class="cls-4" d="M60,9.1c0-1,0-2.18,0-2.84h0c-.14,1-.45,3.31-.7,5h-.83c-.19-1.48-.51-3.92-.64-5h0c0,.67,0,2,0,2.95v2h-.8V5.51h1.32c.22,1.45.45,3.08.52,3.88h0c.1-.81.41-2.51.63-3.88h1.27v5.71H60Z"/><path class="cls-4" d="M65.44,8.61H64.19v1.8h1.44l-.11.81H63.3V5.51h2.21v.82H64.19V7.8h1.25Z"/><path class="cls-4" d="M70.72,9.1c0-1,0-2.18,0-2.84h0c-.13,1-.45,3.31-.7,5h-.83c-.18-1.48-.5-3.92-.63-5h0c0,.67,0,2,0,2.95v2h-.8V5.51h1.32c.22,1.45.45,3.08.53,3.88h0c.09-.81.4-2.51.63-3.88h1.27v5.71h-.84Z"/><path class="cls-4" d="M76.18,8.61H74.92v1.8h1.45l-.11.81H74V5.51h2.2v.82H74.92V7.8h1.26Z"/><path class="cls-4" d="M81.37,5.51H83.6v.82H82.25v1.5h1.28v.82H82.25v2.57h-.88Z"/><path class="cls-4" d="M88.45,7V9.69c0,1.1-.46,1.62-1.43,1.62s-1.35-.53-1.35-1.6V7c0-1.1.55-1.6,1.41-1.6S88.45,5.92,88.45,7Zm-1.88-.08V9.81c0,.48.17.7.49.7s.5-.21.5-.71V6.93c0-.45-.14-.7-.5-.7S86.57,6.45,86.57,6.94Z"/><path class="cls-4" d="M91.7,8.67v2.55h-.88V5.51H92c.87,0,1.38.35,1.38,1.37V7.1c0,.88-.36,1.1-.58,1.2.34.15.53.39.53,1.17a15.93,15.93,0,0,0,0,1.75h-.85a11.65,11.65,0,0,1-.06-1.7c0-.69-.09-.85-.6-.85Zm0-.73h.2c.47,0,.64-.18.64-.8V7c0-.45-.09-.72-.59-.72H91.7Z"/><path class="cls-4" d="M96.59,5.51V9.86c0,.41.14.65.48.65s.46-.27.46-.65V5.51h.88V9.84c0,.9-.4,1.47-1.36,1.47s-1.34-.49-1.34-1.47V5.51Z"/><path class="cls-4" d="M103.78,9.1c0-1,0-2.18,0-2.84h0c-.13,1-.45,3.31-.69,5h-.84c-.18-1.48-.5-3.92-.63-5h0c0,.67,0,2,0,2.95v2h-.8V5.51h1.31c.22,1.45.45,3.08.53,3.88h0c.09-.81.4-2.51.63-3.88h1.27v5.71h-.84Z"/></svg>